<svg width="109" height="44" viewBox="0 0 109 44" fill="none" xmlns="http://www.w3.org/2000/svg">
<g clip-path="url(#clip0_4522_6143)">
<path fill-rule="evenodd" clip-rule="evenodd" d="M22.25 28.1875H30.125V23.6875H31.25V28.1875C31.25 28.8085 30.746 29.3125 30.125 29.3125H22.25C21.629 29.3125 21.125 28.8085 21.125 28.1875V15.8125C21.125 15.1915 21.629 14.6875 22.25 14.6875H30.125C30.746 14.6875 31.25 15.1915 31.25 15.8125V20.3125H30.125V15.8125H22.25V28.1875ZM32.9375 19.1875L36.875 22L32.9375 24.8125V22.5625H25.0625V21.4375H32.9375V19.1875Z" fill="#686F76"/>
<path d="M47.1914 25.9268V27H42.2148V25.9268H47.1914ZM42.4746 17.0469V27H41.1553V17.0469H42.4746ZM48.1758 23.3838V23.2266C48.1758 22.6934 48.2533 22.1989 48.4082 21.7432C48.5632 21.2829 48.7865 20.8841 49.0781 20.5469C49.3698 20.2051 49.723 19.9408 50.1377 19.7539C50.5524 19.5625 51.0173 19.4668 51.5322 19.4668C52.0518 19.4668 52.5189 19.5625 52.9336 19.7539C53.3529 19.9408 53.7083 20.2051 54 20.5469C54.2962 20.8841 54.5218 21.2829 54.6768 21.7432C54.8317 22.1989 54.9092 22.6934 54.9092 23.2266V23.3838C54.9092 23.917 54.8317 24.4115 54.6768 24.8672C54.5218 25.3229 54.2962 25.7217 54 26.0635C53.7083 26.4007 53.3551 26.665 52.9404 26.8564C52.5303 27.0433 52.0654 27.1367 51.5459 27.1367C51.0264 27.1367 50.5592 27.0433 50.1445 26.8564C49.7298 26.665 49.3743 26.4007 49.0781 26.0635C48.7865 25.7217 48.5632 25.3229 48.4082 24.8672C48.2533 24.4115 48.1758 23.917 48.1758 23.3838ZM49.4404 23.2266V23.3838C49.4404 23.7529 49.4837 24.1016 49.5703 24.4297C49.6569 24.7533 49.7868 25.0404 49.96 25.291C50.1377 25.5417 50.3587 25.7399 50.623 25.8857C50.8874 26.027 51.195 26.0977 51.5459 26.0977C51.8923 26.0977 52.1953 26.027 52.4551 25.8857C52.7194 25.7399 52.9382 25.5417 53.1113 25.291C53.2845 25.0404 53.4144 24.7533 53.501 24.4297C53.5921 24.1016 53.6377 23.7529 53.6377 23.3838V23.2266C53.6377 22.862 53.5921 22.5179 53.501 22.1943C53.4144 21.8662 53.2822 21.5768 53.1045 21.3262C52.9313 21.071 52.7126 20.8704 52.4482 20.7246C52.1885 20.5788 51.8831 20.5059 51.5322 20.5059C51.1859 20.5059 50.8805 20.5788 50.6162 20.7246C50.3564 20.8704 50.1377 21.071 49.96 21.3262C49.7868 21.5768 49.6569 21.8662 49.5703 22.1943C49.4837 22.5179 49.4404 22.862 49.4404 23.2266ZM61.2871 19.6035H62.4355V26.8428C62.4355 27.4945 62.3034 28.0505 62.0391 28.5107C61.7747 28.971 61.4056 29.3197 60.9316 29.5566C60.4622 29.7982 59.9199 29.9189 59.3047 29.9189C59.0495 29.9189 58.7487 29.8779 58.4023 29.7959C58.0605 29.7184 57.7233 29.584 57.3906 29.3926C57.0625 29.2057 56.7868 28.9528 56.5635 28.6338L57.2266 27.8818C57.5365 28.2555 57.86 28.5153 58.1973 28.6611C58.5391 28.807 58.8763 28.8799 59.209 28.8799C59.61 28.8799 59.9564 28.8047 60.248 28.6543C60.5397 28.5039 60.7653 28.2806 60.9248 27.9844C61.0889 27.6927 61.1709 27.3327 61.1709 26.9043V21.2305L61.2871 19.6035ZM56.1943 23.3838V23.2402C56.1943 22.6751 56.2604 22.1624 56.3926 21.7021C56.5293 21.2373 56.723 20.8385 56.9736 20.5059C57.2288 20.1732 57.5365 19.918 57.8965 19.7402C58.2565 19.5579 58.6621 19.4668 59.1133 19.4668C59.5781 19.4668 59.9837 19.5488 60.3301 19.7129C60.681 19.8724 60.9772 20.1071 61.2188 20.417C61.4648 20.7223 61.6585 21.0915 61.7998 21.5244C61.9411 21.9574 62.0391 22.4473 62.0938 22.9941V23.623C62.0436 24.1654 61.9456 24.653 61.7998 25.0859C61.6585 25.5189 61.4648 25.888 61.2188 26.1934C60.9772 26.4987 60.681 26.7334 60.3301 26.8975C59.9792 27.057 59.569 27.1367 59.0996 27.1367C58.6576 27.1367 58.2565 27.0433 57.8965 26.8564C57.541 26.6696 57.2357 26.4076 56.9805 26.0703C56.7253 25.7331 56.5293 25.3366 56.3926 24.8809C56.2604 24.4206 56.1943 23.9215 56.1943 23.3838ZM57.459 23.2402V23.3838C57.459 23.7529 57.4954 24.0993 57.5684 24.4229C57.6458 24.7464 57.762 25.0312 57.917 25.2773C58.0765 25.5234 58.2793 25.7171 58.5254 25.8584C58.7715 25.9951 59.0654 26.0635 59.4072 26.0635C59.8265 26.0635 60.1729 25.9746 60.4463 25.7969C60.7197 25.6191 60.9362 25.3844 61.0957 25.0928C61.2598 24.8011 61.3874 24.4844 61.4785 24.1426V22.4951C61.4284 22.2445 61.3509 22.0029 61.2461 21.7705C61.1458 21.5335 61.0137 21.3239 60.8496 21.1416C60.6901 20.9548 60.4919 20.8066 60.2549 20.6973C60.0179 20.5879 59.7399 20.5332 59.4209 20.5332C59.0745 20.5332 58.776 20.6061 58.5254 20.752C58.2793 20.8932 58.0765 21.0892 57.917 21.3398C57.762 21.5859 57.6458 21.873 57.5684 22.2012C57.4954 22.5247 57.459 22.8711 57.459 23.2402ZM75.6836 21.709V22.3379C75.6836 23.0853 75.5902 23.7552 75.4033 24.3477C75.2165 24.9401 74.9476 25.4437 74.5967 25.8584C74.2458 26.2731 73.8242 26.5898 73.332 26.8086C72.8444 27.0273 72.2975 27.1367 71.6914 27.1367C71.1035 27.1367 70.5635 27.0273 70.0713 26.8086C69.5837 26.5898 69.1598 26.2731 68.7998 25.8584C68.4443 25.4437 68.1686 24.9401 67.9727 24.3477C67.7767 23.7552 67.6787 23.0853 67.6787 22.3379V21.709C67.6787 20.9616 67.7744 20.2939 67.9658 19.7061C68.1618 19.1136 68.4375 18.61 68.793 18.1953C69.1484 17.776 69.57 17.457 70.0576 17.2383C70.5498 17.0195 71.0898 16.9102 71.6777 16.9102C72.2839 16.9102 72.8307 17.0195 73.3184 17.2383C73.8105 17.457 74.2321 17.776 74.583 18.1953C74.9385 18.61 75.2096 19.1136 75.3965 19.7061C75.5879 20.2939 75.6836 20.9616 75.6836 21.709ZM74.3779 22.3379V21.6953C74.3779 21.1029 74.3164 20.5788 74.1934 20.123C74.0749 19.6673 73.8994 19.2845 73.667 18.9746C73.4346 18.6647 73.1497 18.43 72.8125 18.2705C72.4798 18.111 72.1016 18.0312 71.6777 18.0312C71.2676 18.0312 70.8962 18.111 70.5635 18.2705C70.2354 18.43 69.9528 18.6647 69.7158 18.9746C69.4834 19.2845 69.3034 19.6673 69.1758 20.123C69.0482 20.5788 68.9844 21.1029 68.9844 21.6953V22.3379C68.9844 22.9349 69.0482 23.4635 69.1758 23.9238C69.3034 24.3796 69.4857 24.7646 69.7227 25.0791C69.9642 25.389 70.249 25.6237 70.5771 25.7832C70.9098 25.9427 71.2812 26.0225 71.6914 26.0225C72.1198 26.0225 72.5003 25.9427 72.833 25.7832C73.1657 25.6237 73.446 25.389 73.6738 25.0791C73.9062 24.7646 74.0817 24.3796 74.2002 23.9238C74.3187 23.4635 74.3779 22.9349 74.3779 22.3379ZM81.9932 25.291V19.6035H83.2646V27H82.0547L81.9932 25.291ZM82.2324 23.7324L82.7588 23.7188C82.7588 24.2109 82.7064 24.6667 82.6016 25.0859C82.5013 25.5007 82.3372 25.8607 82.1094 26.166C81.8815 26.4714 81.583 26.7106 81.2139 26.8838C80.8447 27.0524 80.3958 27.1367 79.8672 27.1367C79.5072 27.1367 79.1768 27.0843 78.876 26.9795C78.5798 26.8747 78.3245 26.7129 78.1104 26.4941C77.8962 26.2754 77.7298 25.9906 77.6113 25.6396C77.4974 25.2887 77.4404 24.8672 77.4404 24.375V19.6035H78.7051V24.3887C78.7051 24.7214 78.7415 24.9971 78.8145 25.2158C78.8919 25.43 78.9945 25.6009 79.1221 25.7285C79.2542 25.8516 79.4001 25.9382 79.5596 25.9883C79.7236 26.0384 79.8923 26.0635 80.0654 26.0635C80.6032 26.0635 81.0293 25.9609 81.3438 25.7559C81.6582 25.5462 81.8838 25.266 82.0205 24.915C82.1618 24.5596 82.2324 24.1654 82.2324 23.7324ZM88.2891 19.6035V20.5742H84.29V19.6035H88.2891ZM85.6436 17.8057H86.9082V25.168C86.9082 25.4186 86.9469 25.6077 87.0244 25.7354C87.1019 25.863 87.2021 25.9473 87.3252 25.9883C87.4482 26.0293 87.5804 26.0498 87.7217 26.0498C87.8265 26.0498 87.9359 26.0407 88.0498 26.0225C88.1683 25.9997 88.2572 25.9814 88.3164 25.9678L88.3232 27C88.223 27.0319 88.0908 27.0615 87.9268 27.0889C87.7673 27.1208 87.5736 27.1367 87.3457 27.1367C87.0358 27.1367 86.751 27.0752 86.4912 26.9521C86.2314 26.8291 86.0241 26.624 85.8691 26.3369C85.7188 26.0452 85.6436 25.6533 85.6436 25.1611V17.8057Z" fill="#343A40"/>
</g>
<rect x="0.5" y="0.5" width="108" height="43" rx="3.5" stroke="#A8B0B8"/>
<defs>
<clipPath id="clip0_4522_6143">
<rect width="109" height="44" rx="4" fill="white"/>
</clipPath>
</defs>
</svg>
