<svg width="228" height="41" viewBox="0 0 228 41" fill="none" xmlns="http://www.w3.org/2000/svg">
<g clip-path="url(#clip0_6014_5421)">
<path d="M106.793 34.1086H26.5254L32.9168 40.5001L106.793 34.1086Z" fill="white"/>
<path d="M33.9733 8.17841V9.1381C32.607 8.17636 30.9799 7.65411 29.3092 7.64099C23.6855 7.64099 19.4053 12.7657 19.4053 19.1571C19.4053 25.5486 23.6855 30.6733 29.3092 30.6733C30.9832 30.6621 32.6126 30.1324 33.9733 29.157V30.1359H38.906V8.17841H33.9733ZM29.3092 25.2415C26.5453 25.2415 24.5108 22.5161 24.5108 19.0612C24.5108 15.6064 26.5453 12.9001 29.3092 12.9001C32.0731 12.9001 34.05 15.6255 34.05 19.0612C34.05 22.4968 32.1306 25.2415 29.3092 25.2415Z" fill="white"/>
<path d="M73.5506 8.17773V20.9799C73.6058 21.5449 73.542 22.115 73.3635 22.6539C73.185 23.1928 72.8958 23.6884 72.5144 24.1088C72.133 24.5291 71.6678 24.8651 71.1488 25.095C70.6298 25.325 70.0684 25.4437 69.5008 25.4437C68.9332 25.4437 68.3718 25.325 67.8528 25.095C67.3338 24.8651 66.8686 24.5291 66.4872 24.1088C66.1058 23.6884 65.8165 23.1928 65.638 22.6539C65.4596 22.115 65.3959 21.5449 65.4509 20.9799V8.17773H60.5181V20.9799C60.4346 22.1973 60.6 23.419 61.0041 24.5704C61.4083 25.7218 62.0429 26.7788 62.8691 27.6768C63.6953 28.5749 64.6959 29.2951 65.8097 29.7937C66.9234 30.2923 68.1271 30.5587 69.3473 30.5767C70.8453 30.5771 72.3093 30.1293 73.5506 29.2908V30.1161H78.5026V8.17773H73.5506Z" fill="white"/>
<path d="M119.615 30.04V17.2378C119.56 16.6728 119.624 16.1026 119.802 15.5637C119.98 15.0248 120.27 14.5293 120.652 14.1089C121.033 13.6886 121.498 13.3526 122.016 13.1226C122.535 12.8927 123.097 12.774 123.665 12.774C124.233 12.774 124.794 12.8927 125.313 13.1226C125.832 13.3526 126.297 13.6886 126.678 14.1089C127.06 14.5293 127.349 15.0248 127.528 15.5637C127.706 16.1026 127.77 16.6728 127.715 17.2378V30.04H132.648V17.2378C132.731 16.0204 132.566 14.7987 132.161 13.6473C131.757 12.4959 131.123 11.4389 130.296 10.5409C129.471 9.64285 128.47 8.92255 127.356 8.42398C126.242 7.9254 125.038 7.65898 123.818 7.64099C122.316 7.66784 120.855 8.13499 119.615 8.98454V8.17841H114.663V30.04H119.615Z" fill="white"/>
<path d="M5.16309 30.0391V21.6131H8.82907L15.163 30.0582H21.6312L13.9538 19.8664C15.5905 18.7227 16.8189 17.0858 17.4596 15.1946C18.1004 13.3035 18.12 11.257 17.5156 9.35391C16.9113 7.45079 15.7146 5.79063 14.1001 4.61566C12.4856 3.4407 10.5379 2.81241 8.54116 2.82251H0V30.0391H5.16309ZM5.16309 7.98559H8.54116C9.66105 7.98559 10.7351 8.43047 11.527 9.22236C12.3189 10.0143 12.7637 11.0883 12.7637 12.2082C12.7637 13.3281 12.3189 14.4021 11.527 15.194C10.7351 15.9859 9.66105 16.4308 8.54116 16.4308H5.16309V7.98559Z" fill="white"/>
<path d="M91.8224 24.8759C91.3559 25.2268 90.7936 25.4277 90.2102 25.4517C89.8779 25.44 89.5515 25.3606 89.251 25.2182C88.9505 25.0759 88.6824 24.8734 88.4631 24.6236C88.2438 24.3737 88.0779 24.0815 87.9756 23.7651C87.8734 23.4487 87.8369 23.1147 87.8685 22.7838V13.4173H92.1296V8.17742H87.8302V2.82239H82.8974V8.17742H80.2871V13.4173H82.8974V22.8221C82.8641 23.812 83.029 24.7984 83.3825 25.7236C83.7362 26.6487 84.2711 27.4938 84.9561 28.2091C85.6409 28.9244 86.4621 29.4956 87.3709 29.8889C88.2799 30.2823 89.2583 30.49 90.2485 30.4996C91.9361 30.5032 93.5981 30.0877 95.0854 29.2904L91.8224 24.8759Z" fill="white"/>
<path d="M51.19 18.4654L59.6735 8.2544H52.7447L46.8138 15.8358V1.0376H41.7275V30.0392H46.8138V21.0949L54.1074 30.0392H61.0363L51.19 18.4654Z" fill="white"/>
<path d="M103.243 7.69873C97.4849 7.69873 93.4156 12.7275 93.4156 19.2149C93.2738 22.1042 94.276 24.9331 96.2049 27.0886C98.1344 29.2442 100.835 30.5528 103.722 30.7311C105.475 30.7281 107.198 30.2789 108.73 29.4261C110.261 28.5731 111.55 27.3445 112.474 25.8559L108.118 23.3223C104.74 28.3127 99.1163 25.7791 98.5211 20.808H112.763C113.972 12.977 108.924 7.83308 103.3 7.83308M107.485 16.3359H98.6554C98.7802 15.2445 99.3011 14.2373 100.121 13.506C100.94 12.7745 102 12.3703 103.099 12.3703C104.197 12.3703 105.257 12.7745 106.076 13.506C106.896 14.2373 107.417 15.2445 107.542 16.3359" fill="white"/>
<path d="M161.073 10.6544C160.503 9.68245 159.813 8.78611 159.019 7.98643C156.628 5.56824 153.38 4.18916 149.979 4.14771H140.805V30.0399H149.96C151.648 30.0271 153.317 29.6814 154.871 29.0227C156.427 28.364 157.835 27.4052 159.019 26.2011C159.813 25.4015 160.503 24.5051 161.073 23.5332C162.205 21.569 162.801 19.3417 162.801 17.0746C162.801 14.8075 162.205 12.5803 161.073 10.616M149.883 22.6888H148.079V11.5181H149.883C150.607 11.5307 151.32 11.6903 151.98 11.9872C152.64 12.2842 153.232 12.7123 153.722 13.2455C154.043 13.5987 154.326 13.9847 154.567 14.3971C155.058 15.2139 155.317 16.1499 155.315 17.1034C155.318 18.063 155.059 19.0053 154.567 19.8289C154.33 20.2384 154.047 20.6185 153.722 20.9613C153.237 21.5032 152.647 21.9397 151.986 22.2435C151.326 22.5473 150.609 22.7119 149.883 22.7271" fill="white"/>
<path d="M165.258 9.2147H169.596L170.037 12.7848C170.483 11.6073 171.239 10.5726 172.225 9.79051C173.131 9.08816 174.246 8.70972 175.392 8.71567C176.635 8.6996 177.845 9.1056 178.827 9.86729L177.484 14.8001C176.677 14.1682 175.687 13.8117 174.663 13.7828C174.048 13.7785 173.444 13.9292 172.904 14.2211C172.364 14.513 171.905 14.9367 171.572 15.4527C170.731 16.7382 170.315 18.2555 170.383 19.7904V30.0398H165.258V9.2147Z" fill="white"/>
<path d="M179.672 3.57145C179.666 3.16269 179.744 2.75694 179.902 2.38016C180.061 2.00338 180.296 1.66388 180.594 1.38338C181.208 0.815466 182.013 0.5 182.849 0.5C183.686 0.5 184.49 0.815466 185.105 1.38338C185.393 1.66861 185.62 2.00986 185.772 2.38614C185.924 2.76243 185.997 3.1658 185.988 3.57145C185.994 3.97666 185.919 4.37906 185.768 4.75488C185.616 5.13069 185.39 5.4723 185.105 5.75952C184.809 6.05839 184.459 6.29571 184.071 6.4577C183.685 6.61968 183.268 6.70309 182.849 6.70309C182.429 6.70309 182.014 6.61968 181.627 6.4577C181.24 6.29571 180.888 6.05839 180.594 5.75952C180.299 5.47689 180.066 5.13698 179.908 4.7607C179.748 4.38442 179.668 3.97971 179.672 3.57145ZM180.421 9.21438H185.488V30.0394H180.421V9.21438Z" fill="white"/>
<path d="M202.915 9.21375H208.232L200.535 30.0388H194.585L186.889 9.21375H192.628L197.81 24.6455L202.915 9.21375Z" fill="white"/>
<path d="M207.733 19.6944C207.677 17.698 208.119 15.7189 209.02 13.9363C209.819 12.3668 211.026 11.041 212.512 10.0976C214.029 9.14563 215.789 8.65239 217.58 8.67725C219.372 8.64005 221.135 9.13425 222.647 10.0976C224.098 11.0448 225.26 12.3728 226.006 13.9363C226.851 15.7355 227.266 17.7071 227.215 19.6944V21.1531H212.954C212.957 21.8861 213.111 22.6105 213.409 23.2806C213.706 23.9507 214.138 24.552 214.679 25.0463C215.22 25.5406 215.858 25.9172 216.552 26.1524C217.247 26.3874 217.982 26.4759 218.712 26.4122C219.892 26.3919 221.052 26.1051 222.106 25.5733C223.16 25.0415 224.08 24.2784 224.797 23.3412L226.966 27.1799C225.89 28.3374 224.582 29.2533 223.127 29.867C221.609 30.4816 219.986 30.7944 218.348 30.7883C216.404 30.8424 214.481 30.3716 212.782 29.4256C211.21 28.5386 209.94 27.2017 209.135 25.5868C208.24 23.802 207.799 21.8245 207.849 19.8287M213.05 17.5639H222.206C222.129 16.2242 221.609 14.948 220.728 13.9363C220.333 13.5165 219.853 13.1864 219.32 12.9678C218.787 12.7493 218.213 12.6476 217.637 12.6695C217.068 12.6493 216.5 12.7521 215.973 12.9706C215.447 13.1892 214.973 13.5185 214.586 13.9363C213.712 14.936 213.175 16.1848 213.05 17.5064" fill="white"/>
</g>
<defs>
<clipPath id="clip0_6014_5421">
<rect width="227.619" height="40" fill="white" transform="translate(0 0.5)"/>
</clipPath>
</defs>
</svg>
